<svg width="185" height="47" viewBox="0 0 185 47" fill="none" xmlns="http://www.w3.org/2000/svg">
<path d="M78.567 12.238V34H73.266V20.949L68.399 34H64.121L59.223 20.918V34H53.922V12.238H60.184L66.291 27.304L72.336 12.238H78.567ZM81.325 25.32C81.325 23.5427 81.6557 21.9823 82.317 20.639C82.999 19.2957 83.9187 18.2623 85.076 17.539C86.2334 16.8157 87.525 16.454 88.951 16.454C90.1704 16.454 91.2347 16.702 92.144 17.198C93.074 17.694 93.787 18.345 94.283 19.151V16.702H99.584V34H94.283V31.551C93.7664 32.357 93.043 33.008 92.113 33.504C91.2037 34 90.1394 34.248 88.92 34.248C87.5147 34.248 86.2334 33.8863 85.076 33.163C83.9187 32.419 82.999 31.3753 82.317 30.032C81.6557 28.668 81.325 27.0973 81.325 25.32ZM94.283 25.351C94.283 24.0283 93.911 22.9847 93.167 22.22C92.4437 21.4553 91.555 21.073 90.501 21.073C89.447 21.073 88.548 21.4553 87.804 22.22C87.0807 22.964 86.719 23.9973 86.719 25.32C86.719 26.6427 87.0807 27.6967 87.804 28.482C88.548 29.2467 89.447 29.629 90.501 29.629C91.555 29.629 92.4437 29.2467 93.167 28.482C93.911 27.7173 94.283 26.6737 94.283 25.351ZM109.991 16.454C111.21 16.454 112.275 16.702 113.184 17.198C114.114 17.694 114.827 18.345 115.323 19.151V16.702H120.624V33.969C120.624 35.5603 120.304 36.9967 119.663 38.278C119.043 39.58 118.082 40.6133 116.78 41.378C115.499 42.1427 113.897 42.525 111.975 42.525C109.412 42.525 107.335 41.9153 105.744 40.696C104.153 39.4973 103.243 37.8647 103.016 35.798H108.255C108.42 36.4593 108.813 36.976 109.433 37.348C110.053 37.7407 110.818 37.937 111.727 37.937C112.822 37.937 113.69 37.6167 114.331 36.976C114.992 36.356 115.323 35.3537 115.323 33.969V31.52C114.806 32.326 114.093 32.9873 113.184 33.504C112.275 34 111.21 34.248 109.991 34.248C108.565 34.248 107.273 33.8863 106.116 33.163C104.959 32.419 104.039 31.3753 103.357 30.032C102.696 28.668 102.365 27.0973 102.365 25.32C102.365 23.5427 102.696 21.9823 103.357 20.639C104.039 19.2957 104.959 18.2623 106.116 17.539C107.273 16.8157 108.565 16.454 109.991 16.454ZM115.323 25.351C115.323 24.0283 114.951 22.9847 114.207 22.22C113.484 21.4553 112.595 21.073 111.541 21.073C110.487 21.073 109.588 21.4553 108.844 22.22C108.121 22.964 107.759 23.9973 107.759 25.32C107.759 26.6427 108.121 27.6967 108.844 28.482C109.588 29.2467 110.487 29.629 111.541 29.629C112.595 29.629 113.484 29.2467 114.207 28.482C114.951 27.7173 115.323 26.6737 115.323 25.351ZM148.522 29.629H156.024V34H142.601V29.784L149.793 21.073H142.663V16.702H155.869V20.918L148.522 29.629ZM161.607 14.904C160.677 14.904 159.912 14.6353 159.313 14.098C158.734 13.54 158.445 12.858 158.445 12.052C158.445 11.2253 158.734 10.5433 159.313 10.006C159.912 9.448 160.677 9.169 161.607 9.169C162.516 9.169 163.26 9.448 163.839 10.006C164.438 10.5433 164.738 11.2253 164.738 12.052C164.738 12.858 164.438 13.54 163.839 14.098C163.26 14.6353 162.516 14.904 161.607 14.904ZM164.242 16.702V34H158.941V16.702H164.242ZM178.313 34L174.996 29.195L172.206 34H166.471L172.175 25.165L166.316 16.702H172.268L175.585 21.476L178.375 16.702H184.11L178.313 25.413L184.265 34H178.313Z" fill="white"/>
<path d="M140.765 25.072C140.765 25.568 140.734 26.0847 140.672 26.622H128.675C128.758 27.6967 129.099 28.5233 129.698 29.102C130.318 29.66 131.072 29.939 131.961 29.939C133.284 29.939 134.203 29.381 134.72 28.265H140.362C140.073 29.4017 139.546 30.4247 138.781 31.334C138.037 32.2433 137.097 32.9563 135.96 33.473C134.823 33.9897 133.552 34.248 132.147 34.248C130.452 34.248 128.944 33.8863 127.621 33.163C126.298 32.4397 125.265 31.4063 124.521 30.063C123.777 28.7197 123.405 27.149 123.405 25.351C123.405 23.553 123.767 21.9823 124.49 20.639C125.234 19.2957 126.267 18.2623 127.59 17.539C128.913 16.8157 130.432 16.454 132.147 16.454C133.821 16.454 135.309 16.8053 136.611 17.508C137.913 18.2107 138.926 19.213 139.649 20.515C140.393 21.817 140.765 23.336 140.765 25.072ZM135.34 23.677C135.34 22.7677 135.03 22.0443 134.41 21.507C133.79 20.9697 133.015 20.701 132.085 20.701C131.196 20.701 130.442 20.9593 129.822 21.476C129.223 21.9927 128.851 22.7263 128.706 23.677H135.34Z" fill="#FF184E"/>
<path d="M7.59969 23.584C7.59969 19.9661 8.94953 16.5642 11.4015 14.0053C13.8525 11.4473 17.1122 10.0376 20.5798 10.0376H33.5122L18.656 1.08798C18.4611 0.970673 18.2214 0.970673 18.0264 1.08798L0.315328 11.7598C0.120362 11.8771 0 12.0941 0 12.3287V33.6724C0 33.907 0.120362 34.124 0.315328 34.2413L7.59969 38.6304V23.584Z" fill="white" fill-opacity="0.35"/>
<path d="M20.5786 15.2935C16.1979 15.2935 12.6348 19.013 12.6348 23.5839V24.2846H26.2297V29.5395H12.6348V41.6637L18.0262 44.912C18.2211 45.0293 18.4609 45.0293 18.6558 44.912L36.3669 34.2401C36.5619 34.1228 36.6822 33.9059 36.6822 33.6712V17.2254L42 15.2935H20.5786Z" fill="#FF184E"/>
</svg>
