<svg width="170" height="44" viewBox="0 0 170 44" fill="none" xmlns="http://www.w3.org/2000/svg">
<path d="M56.0415 7.96094H59.8862L65.5474 24.1421L71.2085 7.96094H75.0532L67.0913 30H64.0034L56.0415 7.96094ZM53.9678 7.96094H57.7974L58.4937 23.7334V30H53.9678V7.96094ZM73.2974 7.96094H77.1421V30H72.6011V23.7334L73.2974 7.96094ZM89.6904 26.3066V19.0107C89.6904 18.486 89.6047 18.0369 89.4331 17.6636C89.2616 17.2801 88.9941 16.9824 88.6309 16.7705C88.2777 16.5586 87.8185 16.4526 87.2534 16.4526C86.769 16.4526 86.3503 16.5384 85.9971 16.71C85.6439 16.8714 85.3714 17.1086 85.1797 17.4214C84.988 17.7241 84.8921 18.0824 84.8921 18.4961H80.5327C80.5327 17.7998 80.6942 17.1388 81.0171 16.5132C81.34 15.8875 81.8092 15.3376 82.4248 14.8633C83.0404 14.3789 83.772 14.0005 84.6196 13.728C85.4774 13.4556 86.436 13.3193 87.4956 13.3193C88.7671 13.3193 89.8973 13.5312 90.8862 13.9551C91.8752 14.3789 92.6522 15.0146 93.2173 15.8623C93.7925 16.71 94.0801 17.7695 94.0801 19.041V26.0493C94.0801 26.9474 94.1356 27.6841 94.2466 28.2593C94.3576 28.8244 94.519 29.3188 94.731 29.7427V30H90.3262C90.1143 29.556 89.9528 29.001 89.8418 28.335C89.7409 27.6589 89.6904 26.9827 89.6904 26.3066ZM90.2656 20.0249L90.2959 22.4922H87.8589C87.2837 22.4922 86.7842 22.5578 86.3604 22.689C85.9365 22.8201 85.5884 23.0068 85.3159 23.249C85.0435 23.4811 84.8416 23.7536 84.7104 24.0664C84.5894 24.3792 84.5288 24.7223 84.5288 25.0957C84.5288 25.4691 84.6146 25.8071 84.7861 26.1099C84.9577 26.4025 85.2049 26.6346 85.5278 26.8062C85.8507 26.9676 86.2292 27.0483 86.6631 27.0483C87.319 27.0483 87.8892 26.9172 88.3735 26.6548C88.8579 26.3924 89.2313 26.0695 89.4937 25.686C89.7661 25.3026 89.9074 24.9393 89.9175 24.5962L91.0679 26.4429C90.9064 26.8566 90.6844 27.2855 90.4019 27.7295C90.1294 28.1735 89.7812 28.5923 89.3574 28.9858C88.9336 29.3693 88.424 29.6872 87.8286 29.9395C87.2332 30.1816 86.5269 30.3027 85.7095 30.3027C84.6701 30.3027 83.7266 30.0959 82.8789 29.6821C82.0413 29.2583 81.3753 28.6781 80.8809 27.9414C80.3965 27.1947 80.1543 26.347 80.1543 25.3984C80.1543 24.5407 80.3158 23.7788 80.6387 23.1128C80.9616 22.4468 81.4359 21.8867 82.0615 21.4326C82.6973 20.9684 83.4894 20.6203 84.438 20.3882C85.3866 20.146 86.4865 20.0249 87.7378 20.0249H90.2656ZM107.809 13.6221H111.76V29.4551C111.76 30.9486 111.427 32.215 110.761 33.2544C110.105 34.3039 109.187 35.096 108.006 35.6309C106.825 36.1758 105.453 36.4482 103.889 36.4482C103.202 36.4482 102.476 36.3574 101.709 36.1758C100.952 35.9941 100.226 35.7116 99.5293 35.3281C98.8431 34.9447 98.2679 34.4603 97.8037 33.875L99.7261 31.3018C100.231 31.887 100.816 32.3411 101.482 32.6641C102.148 32.9971 102.885 33.1636 103.692 33.1636C104.479 33.1636 105.145 33.0173 105.69 32.7246C106.235 32.4421 106.654 32.0233 106.946 31.4683C107.239 30.9233 107.385 30.2624 107.385 29.4854V17.4062L107.809 13.6221ZM96.7896 22.0078V21.6899C96.7896 20.4386 96.9409 19.3034 97.2437 18.2842C97.5565 17.2549 97.9954 16.3719 98.5605 15.6353C99.1357 14.8986 99.832 14.3285 100.649 13.9248C101.467 13.5212 102.39 13.3193 103.419 13.3193C104.509 13.3193 105.423 13.5212 106.159 13.9248C106.896 14.3285 107.501 14.9036 107.976 15.6504C108.45 16.387 108.818 17.2599 109.081 18.269C109.353 19.2681 109.565 20.363 109.716 21.5537V22.25C109.565 23.3903 109.338 24.4499 109.035 25.4287C108.732 26.4076 108.334 27.2653 107.839 28.002C107.345 28.7285 106.729 29.2936 105.993 29.6973C105.266 30.1009 104.398 30.3027 103.389 30.3027C102.38 30.3027 101.467 30.0959 100.649 29.6821C99.8421 29.2684 99.1509 28.6882 98.5757 27.9414C98.0005 27.1947 97.5565 26.3167 97.2437 25.3076C96.9409 24.2985 96.7896 23.1986 96.7896 22.0078ZM101.149 21.6899V22.0078C101.149 22.6839 101.215 23.3146 101.346 23.8999C101.477 24.4852 101.679 25.0049 101.951 25.459C102.234 25.903 102.582 26.2511 102.996 26.5034C103.419 26.7456 103.919 26.8667 104.494 26.8667C105.291 26.8667 105.942 26.7002 106.447 26.3672C106.951 26.0241 107.33 25.5549 107.582 24.9595C107.834 24.3641 107.981 23.6779 108.021 22.9009V20.918C108.001 20.2822 107.915 19.7121 107.764 19.2075C107.612 18.6929 107.4 18.2539 107.128 17.8906C106.855 17.5273 106.502 17.2448 106.068 17.043C105.634 16.8411 105.12 16.7402 104.524 16.7402C103.949 16.7402 103.45 16.8714 103.026 17.1338C102.612 17.3861 102.264 17.7342 101.981 18.1782C101.709 18.6222 101.502 19.147 101.361 19.7524C101.22 20.3478 101.149 20.9937 101.149 21.6899ZM144.924 26.5942V30H132.482V26.5942H144.924ZM144.682 16.1348L134.238 30H131.316V27.4116L141.715 13.6221H144.682V16.1348ZM143.138 13.6221V17.043H131.559V13.6221H143.138ZM152.266 13.6221V30H147.891V13.6221H152.266ZM147.619 9.35352C147.619 8.71777 147.841 8.19303 148.285 7.7793C148.729 7.36556 149.324 7.15869 150.071 7.15869C150.807 7.15869 151.398 7.36556 151.842 7.7793C152.296 8.19303 152.523 8.71777 152.523 9.35352C152.523 9.98926 152.296 10.514 151.842 10.9277C151.398 11.3415 150.807 11.5483 150.071 11.5483C149.324 11.5483 148.729 11.3415 148.285 10.9277C147.841 10.514 147.619 9.98926 147.619 9.35352ZM159.38 13.6221L162.089 18.6021L164.875 13.6221H169.521L164.89 21.6294L169.733 30H165.071L162.12 24.7324L159.168 30H154.506L159.35 21.6294L154.718 13.6221H159.38Z" fill="black"/>
<path d="M122.688 30.3027C121.417 30.3027 120.277 30.1009 119.268 29.6973C118.258 29.2835 117.401 28.7134 116.694 27.9868C115.998 27.2603 115.463 26.4176 115.09 25.459C114.716 24.4902 114.53 23.4609 114.53 22.3711V21.7656C114.53 20.5244 114.706 19.3892 115.06 18.3599C115.413 17.3306 115.917 16.4375 116.573 15.6807C117.239 14.9238 118.047 14.3436 118.995 13.9399C119.944 13.5262 121.013 13.3193 122.204 13.3193C123.365 13.3193 124.394 13.5111 125.292 13.8945C126.19 14.278 126.942 14.8229 127.547 15.5293C128.163 16.2357 128.627 17.0833 128.94 18.0723C129.253 19.0511 129.409 20.141 129.409 21.3418V23.1582H116.392V20.252H125.125V19.9189C125.125 19.3135 125.014 18.7736 124.792 18.2993C124.581 17.8149 124.258 17.4315 123.824 17.1489C123.39 16.8664 122.835 16.7251 122.159 16.7251C121.583 16.7251 121.089 16.8512 120.675 17.1035C120.262 17.3558 119.924 17.709 119.661 18.1631C119.409 18.6172 119.217 19.152 119.086 19.7676C118.965 20.373 118.904 21.0391 118.904 21.7656V22.3711C118.904 23.027 118.995 23.6325 119.177 24.1875C119.368 24.7425 119.636 25.2218 119.979 25.6255C120.332 26.0291 120.756 26.342 121.25 26.564C121.755 26.786 122.325 26.897 122.961 26.897C123.748 26.897 124.48 26.7456 125.156 26.4429C125.842 26.13 126.432 25.6608 126.927 25.0352L129.046 27.3359C128.703 27.8304 128.234 28.3047 127.638 28.7588C127.053 29.2129 126.347 29.5863 125.519 29.8789C124.692 30.1615 123.748 30.3027 122.688 30.3027Z" fill="#FF184E"/>
<path d="M7.59969 22.584C7.59969 18.9661 8.94953 15.5642 11.4015 13.0053C13.8525 10.4473 17.1122 9.03759 20.5798 9.03759H33.5122L18.656 0.0879804C18.4611 -0.0293268 18.2214 -0.0293268 18.0264 0.0879804L0.315327 10.7598C0.120362 10.8771 0 11.0941 0 11.3287V32.6724C0 32.907 0.120362 33.124 0.315327 33.2413L7.59969 37.6304V22.584Z" fill="black"/>
<path d="M20.5786 14.2935C16.1979 14.2935 12.6348 18.013 12.6348 22.5839V23.2846H26.2297V28.5395H12.6348V40.6637L18.0262 43.912C18.2211 44.0293 18.4609 44.0293 18.6558 43.912L36.3669 33.2401C36.5619 33.1228 36.6822 32.9059 36.6822 32.6712V16.2254L42 14.2935H20.5786Z" fill="#FF184E"/>
</svg>
